<?xml version="1.0" encoding="UTF-8" standalone="no"?>
<!-- Created with Inkscape (http://www.inkscape.org/) -->

<svg
   width="570"
   height="100"
   viewBox="0 0 150.81251 26.458333"
   version="1.1"
   id="svg5"
   xml:space="preserve"
   inkscape:version="1.4.3 (0d15f75, 2025-12-25)"
   sodipodi:docname="waste-institute-logo-new-paths-light.svg"
   inkscape:export-filename="CIRCULAR HORIZONS ICON.svg"
   inkscape:export-xdpi="96"
   inkscape:export-ydpi="96"
   xmlns:inkscape="http://www.inkscape.org/namespaces/inkscape"
   xmlns:sodipodi="http://sodipodi.sourceforge.net/DTD/sodipodi-0.dtd"
   xmlns="http://www.w3.org/2000/svg"
   xmlns:svg="http://www.w3.org/2000/svg"><sodipodi:namedview
     id="namedview7"
     pagecolor="#ffffff"
     bordercolor="#000000"
     borderopacity="0.25"
     inkscape:showpageshadow="2"
     inkscape:pageopacity="0.0"
     inkscape:pagecheckerboard="0"
     inkscape:deskcolor="#d1d1d1"
     inkscape:document-units="mm"
     showgrid="false"
     inkscape:zoom="0.9"
     inkscape:cx="363.88889"
     inkscape:cy="142.77778"
     inkscape:window-width="1920"
     inkscape:window-height="1009"
     inkscape:window-x="1912"
     inkscape:window-y="-8"
     inkscape:window-maximized="1"
     inkscape:current-layer="g8-57-4-4-4" /><defs
     id="defs2"><linearGradient
       id="linearGradient5585"
       inkscape:swatch="solid"><stop
         style="stop-color:#090606;stop-opacity:1;"
         offset="0"
         id="stop5583" /></linearGradient></defs><g
     id="g1"
     transform="translate(-125.54632,-28.946351)"><g
       inkscape:label="Layer 1"
       id="layer1-9"
       transform="matrix(1.9780811,0,0,1.9780811,-138.32847,88.190755)"
       style="stroke-width:0.50554" /><g
       inkscape:label="Image"
       id="g8"
       transform="matrix(0.46452654,0,0,0.46452654,-331.49221,-318.78645)"><text
         xml:space="preserve"
         style="font-size:26.6667px;line-height:287.333px;font-family:Retroica;-inkscape-font-specification:Retroica;text-align:center;letter-spacing:2px;text-anchor:middle;fill:#cccccc;stroke-width:0"
         x="92.440468"
         y="50.57431"
         id="text349"><tspan
           sodipodi:role="line"
           id="tspan347"
           x="92.440468"
           y="50.57431"
           style="font-size:26.6667px;writing-mode:lr-tb;direction:ltr;fill:#000000"
           rotate="0" /></text><text
         xml:space="preserve"
         style="font-size:26.6667px;line-height:86.2px;font-family:Retroica;-inkscape-font-specification:Retroica;text-align:center;writing-mode:tb-rl;direction:ltr;text-anchor:middle;fill:#000000;fill-opacity:1;stroke-width:0"
         x="99.139046"
         y="26.124477"
         id="text578"><tspan
           sodipodi:role="line"
           id="tspan576"
           x="99.139046"
           y="26.124477" /></text><text
         xml:space="preserve"
         style="font-weight:bold;font-size:16px;line-height:86.2px;font-family:'Mont Blanc-Trial';-inkscape-font-specification:'Mont Blanc-Trial Bold';text-align:center;direction:rtl;text-anchor:middle;opacity:0.4;fill:#00ccff;stroke:#ffffff;stroke-width:18.9"
         x="39.568417"
         y="289.67987"
         id="text434"><tspan
           sodipodi:role="line"
           id="tspan432"
           x="39.568417"
           y="289.67987" /></text><g
         inkscape:label="Image"
         id="g8-57-4-4-4"
         transform="matrix(1.9117377,0,0,1.9117377,-467.78507,-560.93807)"
         style="fill:#00112b;stroke-width:0.523085"><text
           xml:space="preserve"
           style="font-size:26.6667px;line-height:287.333px;font-family:Retroica;-inkscape-font-specification:Retroica;text-align:center;letter-spacing:2px;text-anchor:middle;fill:#00112b;stroke-width:0"
           x="92.440468"
           y="50.57431"
           id="text349-28-3-2-5"><tspan
             sodipodi:role="line"
             id="tspan347-4-7-4-5"
             x="92.440468"
             y="50.57431"
             style="font-size:26.6667px;writing-mode:lr-tb;direction:ltr;fill:#00112b;stroke-width:0"
             rotate="0" /></text><text
           xml:space="preserve"
           style="font-size:26.6667px;line-height:86.2px;font-family:Retroica;-inkscape-font-specification:Retroica;text-align:center;writing-mode:tb-rl;direction:ltr;text-anchor:middle;fill:#00112b;fill-opacity:1;stroke-width:0"
           x="99.139046"
           y="26.124477"
           id="text578-1-0-3-1"><tspan
             sodipodi:role="line"
             id="tspan576-26-2-4-7"
             x="99.139046"
             y="26.124477"
             style="fill:#00112b;stroke-width:0" /></text><path
           style="font-weight:bold;font-size:22.3385px;line-height:481.394px;font-family:'Century Gothic';-inkscape-font-specification:'Century Gothic Bold';text-align:center;letter-spacing:-0.595873px;direction:rtl;text-anchor:middle;stroke-width:0;fill:#00aa00;fill-opacity:1"
           d="m 790.01659,696.41099 h 2.91229 l 2.38874,6.75173 2.57416,-6.75173 h 1.77792 l 2.51962,6.67537 2.38874,-6.67537 h 2.93411 l -4.33027,11.86733 h -1.88699 l -2.53053,-6.76263 -2.60689,6.76263 h -1.86517 z m 27.35997,0 h 2.96683 v 11.86733 h -2.96683 v -1.25436 q -0.8726,0.82897 -1.7561,1.19982 -0.8726,0.35995 -1.8979,0.35995 -2.30148,0 -3.98123,-1.77792 -1.67975,-1.78882 -1.67975,-4.43934 0,-2.74868 1.62521,-4.50478 1.62522,-1.75611 3.94851,-1.75611 1.06893,0 2.00697,0.40358 0.93804,0.40358 1.73429,1.21073 z m -3.13044,2.44328 q -1.38525,0 -2.30148,0.98167 -0.91623,0.97076 -0.91623,2.49781 0,1.53795 0.92714,2.53053 0.93804,0.99258 2.30147,0.99258 1.40707,0 2.3342,-0.97076 0.92714,-0.98168 0.92714,-2.56326 0,-1.54886 -0.92714,-2.50872 -0.92713,-0.95985 -2.3451,-0.95985 z m 15.77623,-0.78534 -1.84336,1.84336 q -1.12347,-1.11256 -2.03969,-1.11256 -0.50175,0 -0.78534,0.21815 -0.2836,0.20724 -0.2836,0.52356 0,0.23996 0.17452,0.4472 0.18543,0.19634 0.89442,0.54538 l 1.09074,0.54537 q 1.72338,0.85078 2.36692,1.73429 0.64354,0.8835 0.64354,2.07242 0,1.58158 -1.1671,2.6396 -1.15619,1.05803 -3.10862,1.05803 -2.59598,0 -4.14484,-2.02879 l 1.83245,-1.99607 q 0.52356,0.61082 1.22164,0.99258 0.70898,0.37086 1.25436,0.37086 0.589,0 0.94895,-0.2836 0.35994,-0.28359 0.35994,-0.65445 0,-0.68717 -1.29798,-1.34161 l -1.00349,-0.50175 q -2.87957,-1.45069 -2.87957,-3.63219 0,-1.40706 1.07984,-2.39964 1.09074,-1.00349 2.7814,-1.00349 1.15619,0 2.17059,0.51265 1.0253,0.50175 1.73428,1.4507 z m 2.32733,-6.03183 h 2.96684 v 4.37389 h 1.76701 v 2.56326 h -1.76701 v 9.30407 h -2.96684 v -9.30407 h -1.52704 v -2.56326 h 1.52704 z m 17.63051,11.16925 h -9.56585 q 0.20725,1.26526 1.10166,2.01788 0.90532,0.74171 2.30147,0.74171 1.66885,0 2.86867,-1.1671 l 2.50872,1.178 q -0.93805,1.33072 -2.24694,1.97426 -1.3089,0.63263 -3.10863,0.63263 -2.79231,0 -4.54842,-1.7561 -1.7561,-1.76701 -1.7561,-4.41753 0,-2.71596 1.7452,-4.50478 1.7561,-1.79974 4.39571,-1.79974 2.80322,0 4.55932,1.79974 1.7561,1.78882 1.7561,4.73384 z m -2.98864,-2.34511 q -0.2945,-0.99258 -1.1671,-1.61431 -0.86169,-0.62172 -2.00698,-0.62172 -1.24345,0 -2.18149,0.69808 -0.589,0.4363 -1.09075,1.53795 z"
           id="text14114-7-2-3-1"
           aria-label="waste" /><path
           style="font-size:22.3385px;line-height:481.394px;font-family:'Century Gothic';-inkscape-font-specification:'Century Gothic';text-align:center;letter-spacing:-0.500533px;text-anchor:middle;stroke-width:0;fill:#00aa00;fill-opacity:1"
           d="m 853.3669,691.77695 q 0.52356,0 0.89441,0.37085 0.37086,0.37086 0.37086,0.89442 0,0.51265 -0.37086,0.8835 -0.37085,0.37085 -0.89441,0.37085 -0.51265,0 -0.8835,-0.37085 -0.37086,-0.37085 -0.37086,-0.8835 0,-0.52356 0.37086,-0.89442 0.37085,-0.37085 0.8835,-0.37085 z m -0.76352,4.88655 h 1.53795 v 11.86732 h -1.53795 z m 4.20058,0 h 1.52705 v 2.12695 q 0.91623,-1.22163 2.02879,-1.82155 1.11256,-0.61081 2.42146,-0.61081 1.33071,0 2.35601,0.67626 1.03621,0.67626 1.52705,1.82155 0.49083,1.14528 0.49083,3.56674 v 6.10818 h -1.51613 v -5.66097 q 0,-2.05061 -0.17452,-2.73778 -0.27269,-1.17801 -1.02531,-1.76701 -0.75261,-0.59991 -1.96334,-0.59991 -1.38525,0 -2.4869,0.91623 -1.09075,0.91622 -1.43979,2.26875 -0.21815,0.88351 -0.21815,3.22861 v 4.35208 h -1.52705 z m 19.08929,1.29798 -0.98167,1.0144 q -1.22164,-1.18892 -2.38874,-1.18892 -0.74171,0 -1.27617,0.49084 -0.52356,0.49084 -0.52356,1.14529 0,0.57809 0.4363,1.10165 0.4363,0.53447 1.83245,1.25436 1.70157,0.8835 2.31239,1.70156 0.59991,0.82897 0.59991,1.86518 0,1.4616 -1.02531,2.476 -1.0253,1.01439 -2.56325,1.01439 -1.0253,0 -1.96335,-0.4472 -0.92713,-0.44721 -1.53795,-1.23255 l 0.95986,-1.09075 q 1.1671,1.31981 2.47599,1.31981 0.91623,0 1.55977,-0.58901 0.64354,-0.589 0.64354,-1.38524 0,-0.65445 -0.42539,-1.1671 -0.42539,-0.50175 -1.91971,-1.26527 -1.6034,-0.82897 -2.1815,-1.63612 -0.57809,-0.80715 -0.57809,-1.84336 0,-1.35253 0.91622,-2.24694 0.92714,-0.89441 2.3342,-0.89441 1.63612,0 3.29406,1.60339 z m 3.53523,-5.7046 h 1.53795 v 4.40662 h 2.42146 v 1.30889 h -2.42146 v 10.55843 h -1.53795 v -10.55843 h -2.08333 v -1.30889 h 2.08333 z m 6.273,-0.47993 q 0.52356,0 0.89442,0.37085 0.37085,0.37086 0.37085,0.89442 0,0.51265 -0.37085,0.8835 -0.37086,0.37085 -0.89442,0.37085 -0.51265,0 -0.8835,-0.37085 -0.37085,-0.37085 -0.37085,-0.8835 0,-0.52356 0.37085,-0.89442 0.37085,-0.37085 0.8835,-0.37085 z m -0.76352,4.88655 h 1.53795 v 11.86732 h -1.53795 z m 5.5313,-4.40662 h 1.53795 v 4.40662 h 2.42146 v 1.30889 h -2.42146 v 10.55843 h -1.53795 v -10.55843 h -2.08333 v -1.30889 h 2.08333 z m 5.54221,4.40662 h 1.53795 v 5.54099 q 0,2.02879 0.21815,2.79231 0.32722,1.09075 1.24345,1.72338 0.92714,0.63264 2.20331,0.63264 1.27617,0 2.15968,-0.61082 0.89441,-0.62173 1.23254,-1.62522 0.22906,-0.68717 0.22906,-2.91229 v -5.54099 h 1.55977 v 5.82458 q 0,2.45419 -0.5781,3.69764 -0.56719,1.24345 -1.72338,1.95243 -1.14528,0.69808 -2.87957,0.69808 -1.73429,0 -2.90139,-0.69808 -1.15619,-0.70898 -1.73428,-1.96334 -0.56719,-1.26527 -0.56719,-3.7958 z m 14.60631,-4.40662 h 1.53795 v 4.40662 h 2.42146 v 1.30889 h -2.42146 v 10.55843 h -1.53795 v -10.55843 h -2.08333 v -1.30889 h 2.08333 z m 15.72978,12.33635 1.28708,0.67626 q -0.63263,1.24345 -1.4616,2.00697 -0.82897,0.76353 -1.86518,1.1671 -1.0362,0.39267 -2.3451,0.39267 -2.90139,0 -4.53751,-1.8979 -1.63612,-1.90881 -1.63612,-4.30845 0,-2.25784 1.38525,-4.02486 1.7561,-2.24693 4.70112,-2.24693 3.03228,0 4.84292,2.30147 1.28708,1.62522 1.30889,4.05758 h -10.6675 q 0.0436,2.07242 1.3198,3.40313 1.27617,1.31981 3.15226,1.31981 0.90532,0 1.7561,-0.31632 0.86169,-0.31632 1.4616,-0.83988 0.59991,-0.52355 1.29799,-1.69065 z m 0,-3.19589 q -0.30541,-1.22164 -0.89441,-1.95244 -0.5781,-0.7308 -1.53795,-1.17801 -0.95986,-0.4472 -2.01789,-0.4472 -1.74519,0 -2.99955,1.12347 -0.91623,0.81806 -1.38525,2.45418 z"
           id="text14114-8-11-5-9-5"
           aria-label="institute" /><text
           xml:space="preserve"
           style="font-weight:bold;font-size:16px;line-height:86.2px;font-family:'Mont Blanc-Trial';-inkscape-font-specification:'Mont Blanc-Trial Bold';text-align:center;direction:rtl;text-anchor:middle;opacity:0.4;fill:#00112b;stroke:#ffffff;stroke-width:9.88623"
           x="39.568417"
           y="289.67987"
           id="text434-1-2-9-7"><tspan
             sodipodi:role="line"
             id="tspan432-04-0-3-6"
             x="39.568417"
             y="289.67987"
             style="fill:#00112b;stroke-width:9.88623" /></text><g
           inkscape:label="Image"
           id="g8-8-4-0-6-1"
           style="fill:#00112b;stroke-width:0.637424"
           transform="matrix(0.41702191,0,0,0.41702191,747.76325,690.76808)" /></g><path
         style="fill:#00aa00;stroke-width:0.999998"
         d="m 1009.4001,802.83633 c -1.4966,-0.92889 -2.3561,-2.58796 -2.3561,-4.54864 0,-1.42859 0.2412,-1.93149 1.5575,-3.24782 1.3164,-1.31636 1.8194,-1.55753 3.2478,-1.55753 4.0792,0 6.4963,3.99876 4.6158,7.63552 -1.1555,2.23414 -4.8041,3.12162 -7.065,1.71847 z m -13.58243,-10.03868 c -1.19068,-1.5138 -0.79552,-2.74333 1.60892,-5.00763 2.26683,-2.13448 5.88741,-4.03322 9.40101,-4.93022 2.4776,-0.63253 7.7065,-0.81955 8.4827,-0.30341 0.2439,0.16201 0.6745,1.01686 0.9571,1.89944 0.2824,0.88261 0.867,2.30767 1.2991,3.16682 l 0.7858,1.56207 -1.3416,-0.28315 c -3.0091,-0.63521 -5.6613,-0.71775 -8.0381,-0.25015 -2.9741,0.58513 -5.0332,1.56969 -7.6976,3.68079 -2.44482,1.93681 -4.1834,2.0851 -5.45733,0.46544 z m 27.06193,-0.70932 c -3.8829,-4.16952 -6.456,-12.02698 -5.5991,-17.09828 0.2179,-1.28898 0.4377,-1.51234 1.925,-1.95673 0.9238,-0.27589 2.3737,-0.85517 3.2226,-1.28728 0.8486,-0.4321 1.6111,-0.71777 1.6942,-0.6348 0.083,0.083 -0.043,0.84652 -0.2762,1.69676 -0.2348,0.85024 -0.3632,3.18699 -0.2854,5.19273 0.1606,4.16275 1.0519,6.51399 3.8853,10.25551 1.8901,2.49575 1.9978,3.08748 0.8314,4.57022 -0.6238,0.79297 -1.1931,1.05707 -2.2788,1.05707 -1.1974,0 -1.7356,-0.30975 -3.119,-1.7952 z m -22.405,-11.09622 c 1.3118,-5.05679 -0.021,-10.42537 -3.64933,-14.77643 -1.16696,-1.39674 -1.43236,-2.02171 -1.33555,-3.14518 0.15192,-1.76739 1.76332,-3.11449 3.27158,-2.73587 2.1737,0.54551 5.2698,4.72937 6.9788,9.43026 1.0805,2.97223 1.6788,9.07781 1.0072,10.27793 -0.2241,0.40044 -1.5579,1.16265 -2.9639,1.6938 -4.26184,1.61001 -3.93845,1.6828 -3.3088,-0.74451 z m -11.71659,0.89001 c -1.585,-0.68196 -2.97579,-2.78404 -2.97579,-4.49759 0,-4.06406 3.47645,-6.39529 7.11041,-4.76817 4.62773,2.07195 3.51984,9.02709 -1.50786,9.46794 -0.98543,0.0863 -2.16731,-0.005 -2.62676,-0.20227 z m 42.07559,-0.41887 c -1.4301,-0.87183 -2.5272,-2.67767 -2.5272,-4.15969 0,-4.54886 5.294,-6.84732 8.5969,-3.73244 1.3029,1.22879 1.4314,1.54676 1.42,3.5103 0,1.24836 -0.2587,2.48398 -0.5956,2.92929 -1.6891,2.23228 -4.6071,2.8471 -6.8941,1.45254 z m -19.9249,-9.64452 -2.3537,-0.20051 -0.9818,-2.60767 c -1.6134,-4.28425 -1.5996,-4.09881 -0.2804,-3.73163 0.6353,0.17697 2.8704,0.32162 4.9667,0.32162 4.5874,0 6.4393,-0.6176 10.3078,-3.43793 3.4361,-2.505 4.7837,-2.52285 6.0848,-0.0805 1.0672,2.00375 -0.8617,4.42363 -5.6071,7.03462 -4.0883,2.24941 -7.7867,3.07286 -12.1363,2.70216 z m -0.9482,-11.42657 c -0.7127,-0.30988 -1.6598,-1.16033 -2.1047,-1.8899 -2.6551,-4.35487 1.9527,-9.6488 6.3978,-7.35025 3.8558,1.99392 3.7125,7.62883 -0.2357,9.27855 -1.6461,0.68782 -2.4034,0.68066 -4.0574,-0.0385 z"
         id="path2" /></g></g></svg>
